<svg aria-hidden="true" style="position: absolute; width: 0; height: 0; overflow: hidden;" version="1.1" xmlns="http://www.w3.org/2000/svg" xmlns:xlink="http://www.w3.org/1999/xlink">
<defs>

<symbol id="icon-home" viewBox="0 0 32 32">
<path d="M32 18.451l-16-12.42-16 12.42v-5.064l16-12.42 16 12.42zM28 18v12h-8v-8h-8v8h-8v-12l12-9z"></path>
</symbol>

<symbol id="icon-genius" viewBox="0 0 30 32">
<path d="M0.567 24c0.785 1.36 2.548 2.079 5.097 2.079 0 0 0 0 0.001 0 1.146 0 2.407-0.161 3.722-0.438 1.266 3.879 3.287 6.359 5.613 6.359s4.347-2.48 5.613-6.359c1.316 0.276 2.577 0.438 3.723 0.438 0 0 0 0 0 0 2.548 0 4.311-0.719 5.096-2.079 1.016-1.761 0.117-4.72-2.966-8 3.083-3.28 3.982-6.239 2.966-8-0.785-1.36-2.548-2.079-5.097-2.079-1.146 0-2.408 0.161-3.723 0.438-1.265-3.879-3.286-6.359-5.612-6.359s-4.347 2.48-5.613 6.359c-1.316-0.277-2.578-0.438-3.723-0.438-2.549 0-4.312 0.719-5.097 2.079-1.016 1.761-0.117 4.72 2.966 8-3.083 3.28-3.983 6.239-2.966 8zM15 31c-1.839 0-3.516-2.199-4.627-5.579 1.503-0.381 3.066-0.92 4.627-1.599 1.561 0.679 3.124 1.218 4.627 1.599-1.111 3.38-2.788 5.579-4.627 5.579zM9 16c0-1.164 0.062-2.297 0.168-3.393 0.893-0.622 1.837-1.228 2.832-1.803 0.984-0.568 1.991-1.077 3-1.533 1.009 0.455 2.016 0.964 3 1.533 0.995 0.574 1.938 1.18 2.832 1.803 0.106 1.096 0.168 2.229 0.168 3.393s-0.062 2.297-0.168 3.393c-0.893 0.622-1.837 1.228-2.832 1.803-0.984 0.568-1.991 1.077-3 1.533-1.009-0.455-2.016-0.964-3-1.533-0.995-0.574-1.938-1.18-2.832-1.803-0.106-1.096-0.168-2.229-0.168-3.393zM8.098 18.623c-1.146-0.861-2.184-1.745-3.086-2.623 0.902-0.878 1.94-1.762 3.086-2.623-0.059 0.854-0.098 1.725-0.098 2.623s0.039 1.769 0.098 2.623zM9.321 11.286c0.184-1.341 0.442-2.604 0.764-3.754 1.195 0.301 2.435 0.717 3.682 1.219-0.762 0.369-1.522 0.757-2.267 1.187-0.773 0.447-1.488 0.897-2.179 1.348zM16.232 8.751c1.247-0.502 2.487-0.918 3.682-1.219 0.322 1.15 0.58 2.413 0.764 3.754-0.69-0.451-1.406-0.901-2.179-1.348-0.744-0.43-1.504-0.818-2.267-1.187zM21.902 13.377c1.147 0.861 2.184 1.744 3.086 2.623-0.902 0.878-1.94 1.762-3.086 2.623 0.059-0.854 0.098-1.725 0.098-2.623s-0.039-1.769-0.098-2.623zM20.679 20.714c-0.184 1.341-0.442 2.604-0.764 3.754-1.195-0.301-2.435-0.717-3.682-1.219 0.763-0.368 1.523-0.757 2.268-1.187 0.772-0.447 1.487-0.897 2.178-1.348zM11.5 22.062c0.745 0.43 1.505 0.819 2.268 1.187-1.247 0.502-2.487 0.918-3.682 1.219-0.322-1.15-0.58-2.413-0.764-3.754 0.69 0.451 1.405 0.901 2.178 1.348zM28.567 23.5c-0.588 1.019-2.090 1.579-4.23 1.579-1.056 0-2.218-0.146-3.432-0.395 0.396-1.424 0.693-3.008 0.877-4.708 1.546-1.084 2.851-2.168 3.94-3.229 2.532 2.682 3.726 5.226 2.845 6.753zM24.336 6.921c2.14 0 3.643 0.561 4.23 1.579 0.882 1.527-0.313 4.071-2.845 6.753-1.089-1.060-2.394-2.145-3.94-3.229-0.184-1.7-0.481-3.284-0.877-4.708 1.214-0.249 2.377-0.395 3.432-0.395zM15 1c1.839 0 3.516 2.199 4.627 5.579-1.503 0.381-3.066 0.92-4.627 1.599-1.561-0.679-3.124-1.218-4.627-1.599 1.111-3.38 2.788-5.579 4.627-5.579zM1.433 8.5c0.588-1.019 2.090-1.579 4.23-1.579 1.056 0 2.218 0.146 3.432 0.395-0.396 1.424-0.693 3.008-0.877 4.708-1.546 1.084-2.851 2.168-3.94 3.229-2.532-2.682-3.726-5.226-2.845-6.753zM4.278 16.747c1.089 1.060 2.394 2.145 3.94 3.229 0.184 1.7 0.481 3.284 0.877 4.708-1.213 0.249-2.375 0.395-3.431 0.395 0 0-0.001 0-0.001 0-2.14 0-3.643-0.561-4.23-1.579-0.881-1.527 0.313-4.071 2.845-6.753zM15 18.5c1.378 0 2.5-1.121 2.5-2.5s-1.122-2.5-2.5-2.5-2.5 1.121-2.5 2.5 1.122 2.5 2.5 2.5zM15 14.5c0.827 0 1.5 0.673 1.5 1.5s-0.673 1.5-1.5 1.5-1.5-0.673-1.5-1.5 0.673-1.5 1.5-1.5z"></path>
</symbol>

<symbol id="icon-browser" viewBox="0 0 42 32">
<path d="M41.5 10c-0.276 0-0.5 0.224-0.5 0.5v20c0 0.276-0.224 0.5-0.5 0.5h-39c-0.276 0-0.5-0.224-0.5-0.5v-20c0-0.276-0.224-0.5-0.5-0.5s-0.5 0.224-0.5 0.5v20c0 0.827 0.673 1.5 1.5 1.5h39c0.827 0 1.5-0.673 1.5-1.5v-20c0-0.276-0.224-0.5-0.5-0.5zM40.5 0h-39c-0.827 0-1.5 0.673-1.5 1.5v6c0 0.276 0.224 0.5 0.5 0.5h41c0.276 0 0.5-0.224 0.5-0.5v-6c0-0.827-0.673-1.5-1.5-1.5zM41 7h-40v-5.5c0-0.276 0.224-0.5 0.5-0.5h39c0.276 0 0.5 0.224 0.5 0.5v5.5zM17.5 28c0.276 0 0.5-0.224 0.5-0.5v-16c0-0.276-0.224-0.5-0.5-0.5h-13c-0.276 0-0.5 0.224-0.5 0.5v16c0 0.276 0.224 0.5 0.5 0.5h13zM5 12h12v15h-12v-15zM22.5 15h15c0.276 0 0.5-0.224 0.5-0.5s-0.224-0.5-0.5-0.5h-15c-0.276 0-0.5 0.224-0.5 0.5s0.224 0.5 0.5 0.5zM22.5 20h15c0.276 0 0.5-0.224 0.5-0.5s-0.224-0.5-0.5-0.5h-15c-0.276 0-0.5 0.224-0.5 0.5s0.224 0.5 0.5 0.5zM22.5 25h15c0.276 0 0.5-0.224 0.5-0.5s-0.224-0.5-0.5-0.5h-15c-0.276 0-0.5 0.224-0.5 0.5s0.224 0.5 0.5 0.5zM3 4c0 0.552 0.448 1 1 1s1-0.448 1-1c0-0.552-0.448-1-1-1s-1 0.448-1 1zM7 4c0 0.552 0.448 1 1 1s1-0.448 1-1c0-0.552-0.448-1-1-1s-1 0.448-1 1zM11 4c0 0.552 0.448 1 1 1s1-0.448 1-1c0-0.552-0.448-1-1-1s-1 0.448-1 1z"></path>
</symbol>


<symbol id="icon-map" viewBox="0 0 41 32">
<path d="M9.239 31.927c0.009 0.006 0.021 0.003 0.030 0.009 0.073 0.037 0.149 0.064 0.231 0.064 0.044 0 0.088-0.006 0.132-0.018l10.868-2.966 10.868 2.966c0.044 0.012 0.088 0.018 0.132 0.018 0.082 0 0.158-0.027 0.23-0.065 0.010-0.005 0.021-0.003 0.030-0.009l9-5.5c0.191-0.117 0.281-0.348 0.22-0.563l-4.984-17.5c-0.041-0.147-0.148-0.267-0.29-0.326-0.142-0.057-0.301-0.048-0.436 0.026l-4.962 2.784c-0.24 0.135-0.326 0.44-0.191 0.681s0.439 0.327 0.682 0.191l4.409-2.475 4.707 16.526-8.015 4.899-1.904-15.231c-0.034-0.275-0.293-0.466-0.559-0.434-0.273 0.034-0.468 0.284-0.434 0.558l1.907 15.259-9.91-2.705v-2.73c0-0.276-0.224-0.5-0.5-0.5s-0.5 0.224-0.5 0.5v2.73l-9.911 2.705 1.907-15.259c0.034-0.274-0.16-0.524-0.434-0.558-0.272-0.032-0.524 0.159-0.559 0.434l-1.903 15.231-8.015-4.898 4.707-16.525 4.409 2.475c0.242 0.134 0.546 0.049 0.682-0.191 0.135-0.241 0.049-0.545-0.191-0.681l-4.963-2.785c-0.133-0.075-0.292-0.085-0.435-0.026s-0.249 0.178-0.29 0.326l-4.984 17.5c-0.062 0.216 0.028 0.446 0.22 0.563l8.999 5.5zM20.161 23.368c0.096 0.088 0.217 0.132 0.339 0.132 0.12 0 0.24-0.043 0.336-0.129 0.333-0.303 8.164-7.489 8.164-14.871 0-4.767-3.733-8.5-8.5-8.5s-8.5 3.733-8.5 8.5c0 7.254 7.828 14.56 8.161 14.868zM20.5 1c4.275 0 7.5 3.224 7.5 7.5 0 6.097-5.993 12.337-7.497 13.807-1.501-1.487-7.503-7.809-7.503-13.807 0-4.276 3.225-7.5 7.5-7.5zM25 8.5c0-2.481-2.019-4.5-4.5-4.5s-4.5 2.019-4.5 4.5 2.019 4.5 4.5 4.5 4.5-2.019 4.5-4.5zM20.5 12c-1.93 0-3.5-1.57-3.5-3.5s1.57-3.5 3.5-3.5 3.5 1.57 3.5 3.5-1.57 3.5-3.5 3.5z"></path>
</symbol>

<symbol id="icon-bubble" viewBox="0 0 32 32">
<path d="M16 7c0.276 0 0.5 0.224 0.5 0.5s-0.225 0.5-0.5 0.5c-5.327 0-10 2.804-10 6 0 0.276-0.224 0.5-0.5 0.5s-0.5-0.224-0.5-0.5c0-3.794 5.037-7 11-7zM16 2c-8.837 0-16 5.373-16 12 0 4.127 2.779 7.766 7.008 9.926 0 0.027-0.008 0.045-0.008 0.074 0 1.793-1.339 3.723-1.928 4.736 0.001 0 0.002 0 0.002 0-0.047 0.11-0.074 0.231-0.074 0.358 0 0.5 0.405 0.906 0.906 0.906 0.094 0 0.259-0.025 0.255-0.014 3.125-0.512 6.069-3.383 6.753-4.215 0.999 0.147 2.029 0.229 3.086 0.229 8.835 0 16-5.373 16-12s-7.164-12-16-12zM16 24c-0.917 0-1.858-0.070-2.796-0.207-0.097-0.016-0.194-0.021-0.29-0.021-0.594 0-1.163 0.264-1.546 0.73-0.428 0.521-1.646 1.684-3.085 2.539 0.39-0.895 0.695-1.898 0.716-2.932 0.006-0.064 0.009-0.129 0.009-0.184 0-0.752-0.421-1.439-1.090-1.781-3.706-1.892-5.918-4.937-5.918-8.144 0-5.514 6.28-10 14-10 7.718 0 14 4.486 14 10s-6.281 10-14 10z"></path>
</symbol>

<symbol id="icon-wallet" viewBox="0 0 32 32">
<path d="M16 20c0-1.105 0.895-2 2-2s2 0.895 2 2c0 1.105-0.895 2-2 2s-2-0.895-2-2zM29.001 13c-0.001 0-0.001 0 0 0l-0.001-6v-3c0-1.657-1.344-3-3-3h-20.5c-3.033 0-5.5 2.468-5.5 5.5v20c0 3.032 2.467 5.5 5.5 5.5h18c3.032 0 5.5-2.468 5.5-5.5v-1.5c0 0 0 0 0.001 0 3.998-3.001 3.998-8.999 0-12zM5.5 3h20.5c0.551 0 1 0.448 1 1v6.184c-0.314-0.112-0.648-0.184-1-0.184h-0.001v-5c0-0.553-0.448-1-1-1h-21c-0.552 0-1 0.447-1 1v3.943c-0.617-0.631-0.999-1.491-0.999-2.443 0-1.933 1.566-3.5 3.5-3.5zM24.999 6h-21v-1h21v1zM24.999 7v1h-21v-1h21zM24.999 9v1h-19.499c-0.54 0-1.044-0.132-1.5-0.35v-0.65h20.999zM27 26.5c0 1.933-1.567 3.5-3.5 3.5h-18c-1.934 0-3.5-1.567-3.5-3.5v-15.761c0.951 0.787 2.171 1.261 3.5 1.261h20.5c0.551 0 1 0.448 1 1v2h-9c-2.762 0-5 2.238-5 5s2.239 5 5 5h9v1.5zM28.277 23h-10.277c-1.654 0-3-1.346-3-3s1.346-3 3-3h9c0.617-0.008 1.229-0.307 1.602-0.804 0.104-0.14 0.185-0.297 0.25-0.461 0.009-0.022 0.025-0.039 0.033-0.062 0.719 0.943 1.115 2.099 1.115 3.327 0 1.538-0.621 2.965-1.723 4z"></path>
</symbol>

<symbol id="icon-pie-chart" viewBox="0 0 32 32">
<path d="M14 18v-14c-7.732 0-14 6.268-14 14s6.268 14 14 14 14-6.268 14-14c0-2.251-0.532-4.378-1.476-6.262l-12.524 6.262zM28.524 7.738c-2.299-4.588-7.043-7.738-12.524-7.738v14l12.524-6.262z"></path>
</symbol>

<symbol id="icon-quotes-right" viewBox="0 0 32 32">
<path d="M25 20c-3.866 0-7-3.134-7-7s3.134-7 7-7 7 3.134 7 7l0.031 1c0 7.732-6.268 14-14 14v-4c2.671 0 5.182-1.040 7.071-2.929 0.364-0.364 0.695-0.75 0.995-1.157-0.357 0.056-0.724 0.086-1.097 0.086zM7 20c-3.866 0-7-3.134-7-7s3.134-7 7-7 7 3.134 7 7l0.031 1c0 7.732-6.268 14-14 14v-4c2.671 0 5.182-1.040 7.071-2.929 0.364-0.364 0.695-0.75 0.995-1.157-0.357 0.056-0.724 0.086-1.097 0.086z"></path>
</symbol>

<symbol id="icon-telegram" viewBox="0 0 32 32">
<path d="M16 0c-8.838 0-16 7.162-16 16s7.162 16 16 16 16-7.163 16-16-7.163-16-16-16zM23.863 10.969l-2.625 12.369c-0.181 0.881-0.712 1.087-1.45 0.681l-4-2.956-1.919 1.869c-0.225 0.219-0.4 0.4-0.8 0.4-0.519 0-0.431-0.194-0.606-0.688l-1.363-4.475-3.956-1.231c-0.856-0.262-0.862-0.85 0.194-1.269l15.412-5.95c0.7-0.319 1.381 0.169 1.113 1.25z"></path>
</symbol>


<symbol id="icon-twitter" viewBox="0 0 32 32">
<path d="M32 7.075c-1.175 0.525-2.444 0.875-3.769 1.031 1.356-0.813 2.394-2.1 2.887-3.631-1.269 0.75-2.675 1.3-4.169 1.594-1.2-1.275-2.906-2.069-4.794-2.069-3.625 0-6.563 2.938-6.563 6.563 0 0.512 0.056 1.012 0.169 1.494-5.456-0.275-10.294-2.888-13.531-6.862-0.563 0.969-0.887 2.1-0.887 3.3 0 2.275 1.156 4.287 2.919 5.463-1.075-0.031-2.087-0.331-2.975-0.819 0 0.025 0 0.056 0 0.081 0 3.181 2.263 5.838 5.269 6.437-0.55 0.15-1.131 0.231-1.731 0.231-0.425 0-0.831-0.044-1.237-0.119 0.838 2.606 3.263 4.506 6.131 4.563-2.25 1.762-5.075 2.813-8.156 2.813-0.531 0-1.050-0.031-1.569-0.094 2.913 1.869 6.362 2.95 10.069 2.95 12.075 0 18.681-10.006 18.681-18.681 0-0.287-0.006-0.569-0.019-0.85 1.281-0.919 2.394-2.075 3.275-3.394z"></path>
</symbol>

<symbol id="icon-facebook2" viewBox="0 0 32 32">
<path d="M29 0h-26c-1.65 0-3 1.35-3 3v26c0 1.65 1.35 3 3 3h13v-14h-4v-4h4v-2c0-3.306 2.694-6 6-6h4v4h-4c-1.1 0-2 0.9-2 2v2h6l-1 4h-5v14h9c1.65 0 3-1.35 3-3v-26c0-1.65-1.35-3-3-3z"></path>
</symbol>

<symbol id="icon-instagram" viewBox="0 0 32 32">
<path d="M16 2.881c4.275 0 4.781 0.019 6.462 0.094 1.563 0.069 2.406 0.331 2.969 0.55 0.744 0.288 1.281 0.638 1.837 1.194 0.563 0.563 0.906 1.094 1.2 1.838 0.219 0.563 0.481 1.412 0.55 2.969 0.075 1.688 0.094 2.194 0.094 6.463s-0.019 4.781-0.094 6.463c-0.069 1.563-0.331 2.406-0.55 2.969-0.288 0.744-0.637 1.281-1.194 1.837-0.563 0.563-1.094 0.906-1.837 1.2-0.563 0.219-1.413 0.481-2.969 0.55-1.688 0.075-2.194 0.094-6.463 0.094s-4.781-0.019-6.463-0.094c-1.563-0.069-2.406-0.331-2.969-0.55-0.744-0.288-1.281-0.637-1.838-1.194-0.563-0.563-0.906-1.094-1.2-1.837-0.219-0.563-0.481-1.413-0.55-2.969-0.075-1.688-0.094-2.194-0.094-6.463s0.019-4.781 0.094-6.463c0.069-1.563 0.331-2.406 0.55-2.969 0.288-0.744 0.638-1.281 1.194-1.838 0.563-0.563 1.094-0.906 1.838-1.2 0.563-0.219 1.412-0.481 2.969-0.55 1.681-0.075 2.188-0.094 6.463-0.094zM16 0c-4.344 0-4.887 0.019-6.594 0.094-1.7 0.075-2.869 0.35-3.881 0.744-1.056 0.412-1.95 0.956-2.837 1.85-0.894 0.888-1.438 1.781-1.85 2.831-0.394 1.019-0.669 2.181-0.744 3.881-0.075 1.713-0.094 2.256-0.094 6.6s0.019 4.887 0.094 6.594c0.075 1.7 0.35 2.869 0.744 3.881 0.413 1.056 0.956 1.95 1.85 2.837 0.887 0.887 1.781 1.438 2.831 1.844 1.019 0.394 2.181 0.669 3.881 0.744 1.706 0.075 2.25 0.094 6.594 0.094s4.888-0.019 6.594-0.094c1.7-0.075 2.869-0.35 3.881-0.744 1.050-0.406 1.944-0.956 2.831-1.844s1.438-1.781 1.844-2.831c0.394-1.019 0.669-2.181 0.744-3.881 0.075-1.706 0.094-2.25 0.094-6.594s-0.019-4.887-0.094-6.594c-0.075-1.7-0.35-2.869-0.744-3.881-0.394-1.063-0.938-1.956-1.831-2.844-0.887-0.887-1.781-1.438-2.831-1.844-1.019-0.394-2.181-0.669-3.881-0.744-1.712-0.081-2.256-0.1-6.6-0.1v0z"></path>
<path d="M16 7.781c-4.537 0-8.219 3.681-8.219 8.219s3.681 8.219 8.219 8.219 8.219-3.681 8.219-8.219c0-4.537-3.681-8.219-8.219-8.219zM16 21.331c-2.944 0-5.331-2.387-5.331-5.331s2.387-5.331 5.331-5.331c2.944 0 5.331 2.387 5.331 5.331s-2.387 5.331-5.331 5.331z"></path>
<path d="M26.462 7.456c0 1.060-0.859 1.919-1.919 1.919s-1.919-0.859-1.919-1.919c0-1.060 0.859-1.919 1.919-1.919s1.919 0.859 1.919 1.919z"></path>
</symbol>


<symbol id="icon-mail" viewBox="0 0 32 32">
<path d="M28 5h-24c-2.209 0-4 1.792-4 4v13c0 2.209 1.791 4 4 4h24c2.209 0 4-1.791 4-4v-13c0-2.208-1.791-4-4-4zM2 10.25l6.999 5.25-6.999 5.25v-10.5zM30 22c0 1.104-0.898 2-2 2h-24c-1.103 0-2-0.896-2-2l7.832-5.875 4.368 3.277c0.533 0.398 1.166 0.6 1.8 0.6 0.633 0 1.266-0.201 1.799-0.6l4.369-3.277 7.832 5.875zM30 20.75l-7-5.25 7-5.25v10.5zM17.199 18.602c-0.349 0.262-0.763 0.4-1.199 0.4s-0.851-0.139-1.2-0.4l-12.8-9.602c0-1.103 0.897-2 2-2h24c1.102 0 2 0.897 2 2l-12.801 9.602z"></path>
</symbol>


<symbol id="icon-phone" viewBox="0 0 32 32">
<path d="M22 20c-2 2-2 4-4 4s-4-2-6-4-4-4-4-6 2-2 4-4-4-8-6-8-6 6-6 6c0 4 4.109 12.109 8 16s12 8 16 8c0 0 6-4 6-6s-6-8-8-6z"></path>
</symbol>



<symbol id="icon-message" viewBox="0 0 20 20">
<path d="M18 6v7c0 1.1-0.9 2-2 2h-4v3l-4-3h-4c-1.101 0-2-0.9-2-2v-7c0-1.1 0.899-2 2-2h12c1.1 0 2 0.9 2 2z"></path>
</symbol>

<symbol id="icon-menu" viewBox="0 0 24 24">
<path d="M3 6h18v2.016h-18v-2.016zM3 12.984v-1.969h18v1.969h-18zM3 18v-2.016h18v2.016h-18z"></path>
</symbol>

</defs>
</svg>
